<?xml version="1.0" encoding="UTF-8" standalone="no"?>
<!-- Created with Inkscape (http://www.inkscape.org/) -->

<svg
   xmlns:dc="http://purl.org/dc/elements/1.1/"
   xmlns:cc="http://creativecommons.org/ns#"
   xmlns:rdf="http://www.w3.org/1999/02/22-rdf-syntax-ns#"
   xmlns:svg="http://www.w3.org/2000/svg"
   xmlns="http://www.w3.org/2000/svg"
   xmlns:sodipodi="http://sodipodi.sourceforge.net/DTD/sodipodi-0.dtd"
   xmlns:inkscape="http://www.inkscape.org/namespaces/inkscape"
   width="48"
   height="48"
   viewBox="0 0 12.7 12.7"
   version="1.1"
   id="svg8"
   inkscape:version="0.92.3 (unknown)"
   sodipodi:docname="icon.svg">
  <defs
     id="defs2" />
  <sodipodi:namedview
     id="base"
     pagecolor="#ffffff"
     bordercolor="#666666"
     borderopacity="1.0"
     inkscape:pageopacity="0.0"
     inkscape:pageshadow="2"
     inkscape:zoom="11.313709"
     inkscape:cx="36.715427"
     inkscape:cy="16.073645"
     inkscape:document-units="mm"
     inkscape:current-layer="text1144"
     showgrid="true"
     units="px"
     inkscape:window-width="1855"
     inkscape:window-height="1056"
     inkscape:window-x="65"
     inkscape:window-y="24"
     inkscape:window-maximized="1"
     inkscape:snap-grids="true"
     inkscape:snap-page="true">
    <inkscape:grid
       type="xygrid"
       id="grid880" />
  </sodipodi:namedview>
  <metadata
     id="metadata5">
    <rdf:RDF>
      <cc:Work
         rdf:about="">
        <dc:format>image/svg+xml</dc:format>
        <dc:type
           rdf:resource="http://purl.org/dc/dcmitype/StillImage" />
        <dc:title />
      </cc:Work>
    </rdf:RDF>
  </metadata>
  <g
     inkscape:label="Layer 1"
     inkscape:groupmode="layer"
     id="layer1"
     transform="translate(0,-284.3)">
    <g
       aria-label="PG"
       transform="matrix(0.04807429,0,0,0.04807429,-13.945096,259.37577)"
       style="font-style:normal;font-variant:normal;font-weight:normal;font-stretch:normal;font-size:40px;line-height:1.25;font-family:'DejaVu Sans';-inkscape-font-specification:'DejaVu Sans';letter-spacing:0px;word-spacing:0px;fill:#000000;fill-opacity:1;stroke:none"
       id="flowRoot12">
      <g
         aria-label="PLANT
GENERATOR"
         style="font-style:normal;font-weight:normal;font-size:29.35271835px;line-height:1.25;font-family:sans-serif;letter-spacing:0px;word-spacing:0px;fill:#000000;fill-opacity:1;stroke:none;stroke-width:5.50363493"
         id="text1144">
        <path
           d="m 308.39807,588.91741 h 20.6028 q 9.20856,0 14.1174,4.55053 4.90884,4.5147 4.90884,12.89914 0,8.42028 -4.90884,12.97081 -4.90884,4.5147 -14.1174,4.5147 h -8.16946 v 18.56043 h -12.43334 z m 12.43334,9.99683 v 14.94151 h 6.84371 q 3.61893,0 5.58963,-1.93487 1.97071,-1.9707 1.97071,-5.5538 0,-3.58309 -1.97071,-5.51796 -1.9707,-1.93488 -5.58963,-1.93488 z"
           style="font-style:normal;font-variant:normal;font-weight:bold;font-stretch:semi-condensed;font-size:73.38179779px;line-height:1;font-family:'DejaVu Sans';-inkscape-font-specification:'DejaVu Sans Bold Semi-Condensed';text-align:center;text-anchor:middle;stroke-width:5.50363493"
           id="path4853" />
        <path
           d="m 356.84152,588.91741 h 12.43334 v 43.06881 h 21.78522 v 10.4268 h -34.21856 z"
           style="font-style:normal;font-variant:normal;font-weight:bold;font-stretch:semi-condensed;font-size:73.38179779px;line-height:1;font-family:'DejaVu Sans';-inkscape-font-specification:'DejaVu Sans Bold Semi-Condensed';text-align:center;text-anchor:middle;stroke-width:5.50363493"
           id="path4855" />
        <path
           d="m 428.21679,632.667 h -19.42038 l -3.08146,9.74602 h -12.46917 l 17.84381,-53.49561 h 14.79819 l 17.84381,53.49561 h -12.505 z m -16.33892,-9.92517 h 13.18579 l -6.55706,-21.28359 z"
           style="font-style:normal;font-variant:normal;font-weight:bold;font-stretch:semi-condensed;font-size:73.38179779px;line-height:1;font-family:'DejaVu Sans';-inkscape-font-specification:'DejaVu Sans Bold Semi-Condensed';text-align:center;text-anchor:middle;stroke-width:5.50363493"
           id="path4857" />
        <path
           d="m 450.14532,588.91741 h 13.86658 l 17.52134,36.6909 v -36.6909 h 11.75255 v 53.49561 h -13.86658 l -17.4855,-36.69089 v 36.69089 h -11.78839 z"
           style="font-style:normal;font-variant:normal;font-weight:bold;font-stretch:semi-condensed;font-size:73.38179779px;line-height:1;font-family:'DejaVu Sans';-inkscape-font-specification:'DejaVu Sans Bold Semi-Condensed';text-align:center;text-anchor:middle;stroke-width:5.50363493"
           id="path4859" />
        <path
           d="m 499.73537,588.91741 h 44.35872 v 10.42681 h -15.94477 v 43.0688 h -12.43334 v -43.0688 h -15.98061 z"
           style="font-style:normal;font-variant:normal;font-weight:bold;font-stretch:semi-condensed;font-size:73.38179779px;line-height:1;font-family:'DejaVu Sans';-inkscape-font-specification:'DejaVu Sans Bold Semi-Condensed';text-align:center;text-anchor:middle;stroke-width:5.50363493"
           id="path4861" />
        <path
           d="m 327.26844,688.51851 q -2.56191,1.37949 -5.32089,2.06924 -2.73928,0.68974 -5.65592,0.68974 -6.62156,0 -10.48414,-4.09906 -3.86258,-4.11877 -3.86258,-11.15418 0,-7.11423 3.9217,-11.19359 3.94141,-4.07935 10.79945,-4.07935 2.64074,0 5.06471,0.55179 2.42396,0.5518 4.57203,1.63569 v 6.08947 q -2.2269,-1.3992 -4.41438,-2.08895 -2.18748,-0.68974 -4.39466,-0.68974 -4.07936,0 -6.28654,2.5422 -2.20719,2.5225 -2.20719,7.23248 0,4.67057 2.12836,7.21277 2.12836,2.54221 6.05006,2.54221 1.06417,0 1.9707,-0.13795 0.92623,-0.15765 1.63568,-0.47297 v -5.71503 h -4.15818 v -5.08442 h 10.64179 z"
           style="font-style:normal;font-variant:normal;font-weight:bold;font-stretch:semi-condensed;font-size:40.35998917px;line-height:1;font-family:'DejaVu Sans';-inkscape-font-specification:'DejaVu Sans Bold Semi-Condensed';text-align:center;text-anchor:middle;stroke-width:5.50363493"
           id="path4863" />
        <path
           d="m 333.25938,661.2834 h 18.42607 v 5.73474 h -11.58773 v 5.47856 h 10.89798 v 5.73474 h -10.89798 v 6.7398 h 11.98187 v 5.73475 h -18.82021 z"
           style="font-style:normal;font-variant:normal;font-weight:bold;font-stretch:semi-condensed;font-size:40.35998917px;line-height:1;font-family:'DejaVu Sans';-inkscape-font-specification:'DejaVu Sans Bold Semi-Condensed';text-align:center;text-anchor:middle;stroke-width:5.50363493"
           id="path4865" />
        <path
           d="m 358.09023,661.2834 h 7.62662 l 9.63674,20.17999 V 661.2834 h 6.4639 v 29.42259 h -7.62662 l -9.61703,-20.18 v 20.18 h -6.48361 z"
           style="font-style:normal;font-variant:normal;font-weight:bold;font-stretch:semi-condensed;font-size:40.35998917px;line-height:1;font-family:'DejaVu Sans';-inkscape-font-specification:'DejaVu Sans Bold Semi-Condensed';text-align:center;text-anchor:middle;stroke-width:5.50363493"
           id="path4867" />
        <path
           d="m 388.51788,661.2834 h 18.42607 v 5.73474 h -11.58773 v 5.47856 h 10.89799 v 5.73474 h -10.89799 v 6.7398 h 11.98187 v 5.73475 h -18.82021 z"
           style="font-style:normal;font-variant:normal;font-weight:bold;font-stretch:semi-condensed;font-size:40.35998917px;line-height:1;font-family:'DejaVu Sans';-inkscape-font-specification:'DejaVu Sans Bold Semi-Condensed';text-align:center;text-anchor:middle;stroke-width:5.50363493"
           id="path4869" />
        <path
           d="m 423.06429,674.32945 q 2.12836,0 3.05459,-0.88682 0.94594,-0.88681 0.94594,-2.91664 0,-2.01011 -0.94594,-2.87722 -0.92623,-0.86711 -3.05459,-0.86711 h -2.87722 v 7.54779 z m -2.87722,5.24207 v 11.13447 h -6.83834 V 661.2834 h 10.42502 q 5.24207,0 7.66603,1.95099 2.44367,1.951 2.44367,6.1683 0,2.91664 -1.26125,4.78881 -1.26125,1.87217 -3.82316,2.75898 1.3992,0.35473 2.50279,1.61598 1.1233,1.24154 2.2466,3.78375 l 3.70492,8.35578 h -7.27189 l -3.21224,-7.31131 q -0.98536,-2.20719 -1.99041,-3.01517 -1.00506,-0.80799 -2.66045,-0.80799 z"
           style="font-style:normal;font-variant:normal;font-weight:bold;font-stretch:semi-condensed;font-size:40.35998917px;line-height:1;font-family:'DejaVu Sans';-inkscape-font-specification:'DejaVu Sans Bold Semi-Condensed';text-align:center;text-anchor:middle;stroke-width:5.50363493"
           id="path4871" />
        <path
           d="m 457.41365,685.34568 h -10.68121 l -1.6948,5.36031 h -6.85805 l 9.8141,-29.42259 h 8.139 l 9.8141,29.42259 h -6.87775 z m -8.9864,-5.45885 h 7.25218 l -3.60638,-11.70597 z"
           style="font-style:normal;font-variant:normal;font-weight:bold;font-stretch:semi-condensed;font-size:40.35998917px;line-height:1;font-family:'DejaVu Sans';-inkscape-font-specification:'DejaVu Sans Bold Semi-Condensed';text-align:center;text-anchor:middle;stroke-width:5.50363493"
           id="path4873" />
        <path
           d="m 463.16809,661.2834 h 24.3973 v 5.73474 h -8.76963 v 23.68785 h -6.83834 v -23.68785 h -8.78933 z"
           style="font-style:normal;font-variant:normal;font-weight:bold;font-stretch:semi-condensed;font-size:40.35998917px;line-height:1;font-family:'DejaVu Sans';-inkscape-font-specification:'DejaVu Sans Bold Semi-Condensed';text-align:center;text-anchor:middle;stroke-width:5.50363493"
           id="path4875" />
        <path
           d="m 503.17335,666.24957 q -3.11371,0 -4.84792,2.56191 -1.71451,2.56192 -1.71451,7.21277 0,4.63115 1.71451,7.19307 1.73421,2.56191 4.84792,2.56191 3.13342,0 4.84793,-2.56191 1.73422,-2.56192 1.73422,-7.19307 0,-4.65085 -1.73422,-7.21277 -1.71451,-2.56191 -4.84793,-2.56191 z m 0,-5.49826 q 6.38508,0 9.99147,4.05965 3.62609,4.05964 3.62609,11.21329 0,7.13395 -3.62609,11.19359 -3.60639,4.05965 -9.99147,4.05965 -6.36536,0 -9.99146,-4.05965 -3.62609,-4.05964 -3.62609,-11.19359 0,-7.15365 3.62609,-11.21329 3.6261,-4.05965 9.99146,-4.05965 z"
           style="font-style:normal;font-variant:normal;font-weight:bold;font-stretch:semi-condensed;font-size:40.35998917px;line-height:1;font-family:'DejaVu Sans';-inkscape-font-specification:'DejaVu Sans Bold Semi-Condensed';text-align:center;text-anchor:middle;stroke-width:5.50363493"
           id="path4877" />
        <path
           d="m 531.68942,674.32945 q 2.12836,0 3.05459,-0.88682 0.94594,-0.88681 0.94594,-2.91664 0,-2.01011 -0.94594,-2.87722 -0.92623,-0.86711 -3.05459,-0.86711 h -2.87722 v 7.54779 z m -2.87722,5.24207 v 11.13447 h -6.83834 V 661.2834 h 10.42502 q 5.24207,0 7.66603,1.95099 2.44367,1.951 2.44367,6.1683 0,2.91664 -1.26125,4.78881 -1.26125,1.87217 -3.82316,2.75898 1.3992,0.35473 2.50279,1.61598 1.1233,1.24154 2.2466,3.78375 l 3.70492,8.35578 h -7.27189 l -3.21225,-7.31131 q -0.98535,-2.20719 -1.9904,-3.01517 -1.00506,-0.80799 -2.66045,-0.80799 z"
           style="font-style:normal;font-variant:normal;font-weight:bold;font-stretch:semi-condensed;font-size:40.35998917px;line-height:1;font-family:'DejaVu Sans';-inkscape-font-specification:'DejaVu Sans Bold Semi-Condensed';text-align:center;text-anchor:middle;stroke-width:5.50363493"
           id="path4879" />
      </g>
    </g>
  </g>
</svg>
