<?xml version="1.0" encoding="UTF-8"?>
<svg xmlns="http://www.w3.org/2000/svg" xmlns:xlink="http://www.w3.org/1999/xlink" width="161pt" height="75pt" viewBox="0 0 161 75" version="1.1">
<g id="surface5755">
<rect x="0" y="0" width="161" height="75" style="fill:rgb(100%,100%,100%);fill-opacity:1;stroke:none;"/>
<path style="fill:none;stroke-width:0.05;stroke-linecap:butt;stroke-linejoin:miter;stroke:rgb(0%,0%,0%);stroke-opacity:1;stroke-miterlimit:10;" d="M 12.8 2.2 C 13.026367 2.709375 13.026367 3.290625 12.8 3.8 " transform="matrix(20,0,0,20,-182.5,-22.5)"/>
<path style="fill:none;stroke-width:0.05;stroke-linecap:butt;stroke-linejoin:miter;stroke:rgb(0%,0%,0%);stroke-opacity:1;stroke-dasharray:0.1,0.1;stroke-miterlimit:10;" d="M 12.2 3 C 12.2 3.662695 11.662695 4.2 11 4.2 C 10.337305 4.2 9.8 3.662695 9.8 3 C 9.8 2.337305 10.337305 1.8 11 1.8 C 11.662695 1.8 12.2 2.337305 12.2 3 " transform="matrix(20,0,0,20,-182.5,-22.5)"/>
<path style="fill:none;stroke-width:0.05;stroke-linecap:butt;stroke-linejoin:miter;stroke:rgb(0%,0%,0%);stroke-opacity:1;stroke-miterlimit:10;" d="M 11 1.2 L 11 4.8 " transform="matrix(20,0,0,20,-182.5,-22.5)"/>
<path style="fill:none;stroke-width:0.05;stroke-linecap:butt;stroke-linejoin:miter;stroke:rgb(0%,0%,0%);stroke-opacity:1;stroke-dasharray:0.1,0.1;stroke-miterlimit:10;" d="M 9.2 3 L 12.8 3 " transform="matrix(20,0,0,20,-182.5,-22.5)"/>
<path style="fill:none;stroke-width:0.05;stroke-linecap:butt;stroke-linejoin:miter;stroke:rgb(0%,0%,0%);stroke-opacity:1;stroke-dasharray:0.1,0.1;stroke-miterlimit:10;" d="M 9.6 1.6 L 12.4 4.4 " transform="matrix(20,0,0,20,-182.5,-22.5)"/>
<path style="fill:none;stroke-width:0.05;stroke-linecap:butt;stroke-linejoin:miter;stroke:rgb(0%,0%,0%);stroke-opacity:1;stroke-dasharray:0.1,0.1;stroke-miterlimit:10;" d="M 9.6 4.4 L 12.4 1.6 " transform="matrix(20,0,0,20,-182.5,-22.5)"/>
<path style="fill-rule:evenodd;fill:rgb(53.333336%,53.333336%,53.333336%);fill-opacity:1;stroke-width:0.05;stroke-linecap:butt;stroke-linejoin:miter;stroke:rgb(0%,0%,0%);stroke-opacity:1;stroke-miterlimit:10;" d="M 13.1 3 C 13.1 3.133398 12.9 3.133398 12.9 3 C 12.9 2.866602 13.1 2.866602 13.1 3 " transform="matrix(20,0,0,20,-182.5,-22.5)"/>
<path style="fill:none;stroke-width:0.05;stroke-linecap:butt;stroke-linejoin:miter;stroke:rgb(0%,0%,0%);stroke-opacity:1;stroke-miterlimit:10;" d="M 16.6 1.8 C 17.133398 2.511133 17.133398 3.488867 16.6 4.2 " transform="matrix(20,0,0,20,-182.5,-22.5)"/>
<path style="fill:none;stroke-width:0.05;stroke-linecap:butt;stroke-linejoin:miter;stroke:rgb(0%,0%,0%);stroke-opacity:1;stroke-dasharray:0.1,0.1;stroke-miterlimit:10;" d="M 16.2 3 C 16.2 3.662695 15.662695 4.2 15 4.2 C 14.337305 4.2 13.8 3.662695 13.8 3 C 13.8 2.337305 14.337305 1.8 15 1.8 C 15.662695 1.8 16.2 2.337305 16.2 3 " transform="matrix(20,0,0,20,-182.5,-22.5)"/>
<path style="fill:none;stroke-width:0.05;stroke-linecap:butt;stroke-linejoin:miter;stroke:rgb(0%,0%,0%);stroke-opacity:1;stroke-miterlimit:10;" d="M 15 1.2 L 15 4.8 " transform="matrix(20,0,0,20,-182.5,-22.5)"/>
<path style="fill:none;stroke-width:0.05;stroke-linecap:butt;stroke-linejoin:miter;stroke:rgb(0%,0%,0%);stroke-opacity:1;stroke-dasharray:0.1,0.1;stroke-miterlimit:10;" d="M 13.4 1.8 L 16.6 4.2 " transform="matrix(20,0,0,20,-182.5,-22.5)"/>
<path style="fill:none;stroke-width:0.05;stroke-linecap:butt;stroke-linejoin:miter;stroke:rgb(0%,0%,0%);stroke-opacity:1;stroke-dasharray:0.1,0.1;stroke-miterlimit:10;" d="M 13.4 4.2 L 16.6 1.8 " transform="matrix(20,0,0,20,-182.5,-22.5)"/>
<path style="fill-rule:evenodd;fill:rgb(53.333336%,53.333336%,53.333336%);fill-opacity:1;stroke-width:0.05;stroke-linecap:butt;stroke-linejoin:miter;stroke:rgb(0%,0%,0%);stroke-opacity:1;stroke-miterlimit:10;" d="M 17.1 3 C 17.1 3.133398 16.9 3.133398 16.9 3 C 16.9 2.866602 17.1 2.866602 17.1 3 " transform="matrix(20,0,0,20,-182.5,-22.5)"/>
</g>
</svg>
