<?xml version="1.0" encoding="UTF-8"?>
<svg xmlns="http://www.w3.org/2000/svg" xmlns:xlink="http://www.w3.org/1999/xlink" width="163pt" height="103pt" viewBox="0 0 163 103" version="1.1">
<g id="surface6429">
<rect x="0" y="0" width="163" height="103" style="fill:rgb(100%,100%,100%);fill-opacity:1;stroke:none;"/>
<path style=" stroke:none;fill-rule:evenodd;fill:rgb(53.333336%,53.333336%,53.333336%);fill-opacity:1;" d="M 61.671875 31.671875 L 81.671875 21.671875 L 81.671875 61.671875 Z M 61.671875 31.671875 "/>
<path style="fill:none;stroke-width:0.05;stroke-linecap:round;stroke-linejoin:miter;stroke:rgb(0%,0%,0%);stroke-opacity:1;stroke-dasharray:0.1,0.1;stroke-miterlimit:10;" d="M -4.999947 -1.999947 L -2.184127 -3.407955 " transform="matrix(20,0,0,20,181.67082,101.67082)"/>
<path style="fill-rule:evenodd;fill:rgb(0%,0%,0%);fill-opacity:1;stroke-width:0.05;stroke-linecap:butt;stroke-linejoin:miter;stroke:rgb(0%,0%,0%);stroke-opacity:1;stroke-miterlimit:10;" d="M -2.049947 -3.474947 L -2.184127 -3.296041 L -2.184127 -3.407955 L -2.27358 -3.474947 Z M -2.049947 -3.474947 " transform="matrix(20,0,0,20,181.67082,101.67082)"/>
<path style="fill:none;stroke-width:0.05;stroke-linecap:round;stroke-linejoin:miter;stroke:rgb(0%,0%,0%);stroke-opacity:1;stroke-miterlimit:10;" d="M -5.999947 -3.499947 L -3.999947 -0.499947 " transform="matrix(20,0,0,20,181.67082,101.67082)"/>
<path style="fill:none;stroke-width:0.05;stroke-linecap:round;stroke-linejoin:miter;stroke:rgb(0%,0%,0%);stroke-opacity:1;stroke-miterlimit:10;" d="M -5.999947 -3.499947 L -2.999947 -4.999947 " transform="matrix(20,0,0,20,181.67082,101.67082)"/>
<path style="fill:none;stroke-width:0.05;stroke-linecap:butt;stroke-linejoin:miter;stroke:rgb(0%,0%,0%);stroke-opacity:1;stroke-dasharray:0.1,0.1;stroke-miterlimit:10;" d="M -4.999947 0.0000527298 L -4.999947 -4.794088 " transform="matrix(20,0,0,20,181.67082,101.67082)"/>
<path style="fill-rule:evenodd;fill:rgb(0%,0%,0%);fill-opacity:1;stroke-width:0.05;stroke-linecap:butt;stroke-linejoin:miter;stroke:rgb(0%,0%,0%);stroke-opacity:1;stroke-miterlimit:10;" d="M -4.999947 -4.944088 L -4.899947 -4.744088 L -4.999947 -4.794088 L -5.099947 -4.744088 Z M -4.999947 -4.944088 " transform="matrix(20,0,0,20,181.67082,101.67082)"/>
<path style="fill:none;stroke-width:0.05;stroke-linecap:round;stroke-linejoin:miter;stroke:rgb(0%,0%,0%);stroke-opacity:1;stroke-miterlimit:10;" d="M -3.999947 -0.499947 L -0.999947 -1.999947 " transform="matrix(20,0,0,20,181.67082,101.67082)"/>
<path style="fill:none;stroke-width:0.05;stroke-linecap:round;stroke-linejoin:miter;stroke:rgb(0%,0%,0%);stroke-opacity:1;stroke-miterlimit:10;" d="M -3.999947 -3.499947 L -5.999947 -0.499947 " transform="matrix(20,0,0,20,181.67082,101.67082)"/>
<path style="fill:none;stroke-width:0.05;stroke-linecap:round;stroke-linejoin:miter;stroke:rgb(0%,0%,0%);stroke-opacity:1;stroke-miterlimit:10;" d="M -8.999947 -1.999947 L -5.999947 -0.499947 " transform="matrix(20,0,0,20,181.67082,101.67082)"/>
<path style="fill:none;stroke-width:0.05;stroke-linecap:round;stroke-linejoin:miter;stroke:rgb(0%,0%,0%);stroke-opacity:1;stroke-miterlimit:10;" d="M -6.999947 -4.999947 L -3.999947 -3.499947 " transform="matrix(20,0,0,20,181.67082,101.67082)"/>
<path style="fill:none;stroke-width:0.05;stroke-linecap:round;stroke-linejoin:miter;stroke:rgb(0%,0%,0%);stroke-opacity:1;stroke-dasharray:0.1,0.1;stroke-miterlimit:10;" d="M -4.999947 -1.999947 L -7.815768 -3.407955 " transform="matrix(20,0,0,20,181.67082,101.67082)"/>
<path style="fill-rule:evenodd;fill:rgb(0%,0%,0%);fill-opacity:1;stroke-width:0.05;stroke-linecap:butt;stroke-linejoin:miter;stroke:rgb(0%,0%,0%);stroke-opacity:1;stroke-miterlimit:10;" d="M -7.949947 -3.474947 L -7.726314 -3.474947 L -7.815768 -3.407955 L -7.815768 -3.296041 Z M -7.949947 -3.474947 " transform="matrix(20,0,0,20,181.67082,101.67082)"/>
<path style="fill:none;stroke-width:0.05;stroke-linecap:round;stroke-linejoin:miter;stroke:rgb(0%,0%,0%);stroke-opacity:1;stroke-dasharray:0.1,0.1;stroke-miterlimit:10;" d="M -4.599947 -3.799947 L -6.599947 -0.799947 " transform="matrix(20,0,0,20,181.67082,101.67082)"/>
<path style="fill:none;stroke-width:0.05;stroke-linecap:round;stroke-linejoin:miter;stroke:rgb(0%,0%,0%);stroke-opacity:1;stroke-dasharray:0.1,0.1;stroke-miterlimit:10;" d="M -4.999947 -3.999947 L -6.999947 -0.999947 " transform="matrix(20,0,0,20,181.67082,101.67082)"/>
<path style="fill:none;stroke-width:0.05;stroke-linecap:round;stroke-linejoin:miter;stroke:rgb(0%,0%,0%);stroke-opacity:1;stroke-dasharray:0.1,0.1;stroke-miterlimit:10;" d="M -5.399947 -4.199947 L -7.399947 -1.199947 " transform="matrix(20,0,0,20,181.67082,101.67082)"/>
<path style="fill:none;stroke-width:0.05;stroke-linecap:round;stroke-linejoin:miter;stroke:rgb(0%,0%,0%);stroke-opacity:1;stroke-dasharray:0.1,0.1;stroke-miterlimit:10;" d="M -5.799947 -4.399947 L -7.799947 -1.399947 " transform="matrix(20,0,0,20,181.67082,101.67082)"/>
<path style="fill:none;stroke-width:0.05;stroke-linecap:round;stroke-linejoin:miter;stroke:rgb(0%,0%,0%);stroke-opacity:1;stroke-dasharray:0.1,0.1;stroke-miterlimit:10;" d="M -6.199947 -4.599947 L -8.199947 -1.599947 " transform="matrix(20,0,0,20,181.67082,101.67082)"/>
<path style="fill:none;stroke-width:0.05;stroke-linecap:round;stroke-linejoin:miter;stroke:rgb(0%,0%,0%);stroke-opacity:1;stroke-dasharray:0.1,0.1;stroke-miterlimit:10;" d="M -6.599947 -4.799947 L -8.599947 -1.799947 " transform="matrix(20,0,0,20,181.67082,101.67082)"/>
<path style="fill:none;stroke-width:0.05;stroke-linecap:round;stroke-linejoin:miter;stroke:rgb(0%,0%,0%);stroke-opacity:1;stroke-dasharray:0.1,0.1;stroke-miterlimit:10;" d="M -4.199947 -3.599947 L -6.199947 -0.599947 " transform="matrix(20,0,0,20,181.67082,101.67082)"/>
<path style="fill:none;stroke-width:0.05;stroke-linecap:round;stroke-linejoin:miter;stroke:rgb(0%,0%,0%);stroke-opacity:1;stroke-dasharray:0.1,0.1;stroke-miterlimit:10;" d="M -5.799947 -3.599947 L -3.799947 -0.599947 " transform="matrix(20,0,0,20,181.67082,101.67082)"/>
<path style="fill:none;stroke-width:0.05;stroke-linecap:round;stroke-linejoin:miter;stroke:rgb(0%,0%,0%);stroke-opacity:1;stroke-dasharray:0.1,0.1;stroke-miterlimit:10;" d="M -5.399947 -3.799947 L -3.399947 -0.799947 " transform="matrix(20,0,0,20,181.67082,101.67082)"/>
<path style="fill:none;stroke-width:0.05;stroke-linecap:round;stroke-linejoin:miter;stroke:rgb(0%,0%,0%);stroke-opacity:1;stroke-dasharray:0.1,0.1;stroke-miterlimit:10;" d="M -4.999947 -3.999947 L -2.999947 -0.999947 " transform="matrix(20,0,0,20,181.67082,101.67082)"/>
<path style="fill:none;stroke-width:0.05;stroke-linecap:round;stroke-linejoin:miter;stroke:rgb(0%,0%,0%);stroke-opacity:1;stroke-dasharray:0.1,0.1;stroke-miterlimit:10;" d="M -4.599947 -4.199947 L -2.599947 -1.199947 " transform="matrix(20,0,0,20,181.67082,101.67082)"/>
<path style="fill:none;stroke-width:0.05;stroke-linecap:round;stroke-linejoin:miter;stroke:rgb(0%,0%,0%);stroke-opacity:1;stroke-dasharray:0.1,0.1;stroke-miterlimit:10;" d="M -4.199947 -4.399947 L -2.199947 -1.399947 " transform="matrix(20,0,0,20,181.67082,101.67082)"/>
<path style="fill:none;stroke-width:0.05;stroke-linecap:round;stroke-linejoin:miter;stroke:rgb(0%,0%,0%);stroke-opacity:1;stroke-dasharray:0.1,0.1;stroke-miterlimit:10;" d="M -3.799947 -4.599947 L -1.799947 -1.599947 " transform="matrix(20,0,0,20,181.67082,101.67082)"/>
<path style="fill:none;stroke-width:0.05;stroke-linecap:round;stroke-linejoin:miter;stroke:rgb(0%,0%,0%);stroke-opacity:1;stroke-dasharray:0.1,0.1;stroke-miterlimit:10;" d="M -3.399947 -4.799947 L -1.399947 -1.799947 " transform="matrix(20,0,0,20,181.67082,101.67082)"/>
</g>
</svg>
