<?xml version="1.0" encoding="UTF-8" standalone="no"?>
<!-- Created by diasvg.py -->
<svg width="6.375cm" height="2.850cm" viewBox="4.975 -1.425 6.375 2.850"
 xmlns="http://www.w3.org/2000/svg"
 xmlns:xlink="http://www.w3.org/1999/xlink">
<!-- Layer: Background -->
<g id="Background">
<!-- Standard - Arc -->
<path stroke="#000000" fill="none" stroke-width="0.050"  d ="M 10.800,-1.000 A 1.450,1.450 0 0,1 10.800,1.000 "/>
<!-- Geometric - Perfect Circle -->
<ellipse cx="11.200" cy="-0.000" rx="0.100" ry="0.100" fill="#888888" stroke="#000000"  stroke-width="0.050" />
<!-- Standard - Arc -->
<path stroke="#000000" fill="none" stroke-width="0.050"  d ="M 7.850,-0.600 A 1.342,1.342 0 0,1 7.850,0.600 "/>
<!-- Geometric - Perfect Circle -->
<ellipse cx="9.600" cy="0.000" rx="1.000" ry="1.000" fill="none" stroke="#000000"  stroke-width="0.050" stroke-dasharray="0.10,0.10"/>
<!-- Standard - Line -->
<line x1="9.600" y1="-1.400" x2="9.600" y2="1.400" stroke="#000000" stroke-width="0.050" />
<!-- Standard - Line -->
<line x1="8.400" y1="1.000" x2="10.800" y2="-1.000" stroke="#000000" stroke-width="0.050" stroke-dasharray="0.10,0.10"/>
<!-- Standard - Line -->
<line x1="8.400" y1="-1.000" x2="10.800" y2="1.000" stroke="#000000" stroke-width="0.050" stroke-dasharray="0.10,0.10"/>
<!-- Geometric - Perfect Circle -->
<ellipse cx="6.400" cy="0.000" rx="1.000" ry="1.000" fill="none" stroke="#000000"  stroke-width="0.050" stroke-dasharray="0.10,0.10"/>
<!-- Standard - Line -->
<line x1="6.400" y1="-1.400" x2="6.400" y2="1.400" stroke="#000000" stroke-width="0.050" />
<!-- Standard - Line -->
<line x1="5.000" y1="0.000" x2="7.800" y2="0.000" stroke="#000000" stroke-width="0.050" stroke-dasharray="0.10,0.10"/>
<!-- Standard - Line -->
<line x1="5.400" y1="-1.000" x2="7.400" y2="1.000" stroke="#000000" stroke-width="0.050" stroke-dasharray="0.10,0.10"/>
<!-- Standard - Line -->
<line x1="5.400" y1="1.000" x2="7.400" y2="-1.000" stroke="#000000" stroke-width="0.050" stroke-dasharray="0.10,0.10"/>
<!-- Geometric - Perfect Circle -->
<ellipse cx="8.000" cy="-0.000" rx="0.100" ry="0.100" fill="#888888" stroke="#000000"  stroke-width="0.050" />
</g>
</svg>