<?xml version="1.0" encoding="UTF-8"?>
<svg xmlns="http://www.w3.org/2000/svg" xmlns:xlink="http://www.w3.org/1999/xlink" width="205pt" height="75pt" viewBox="0 0 205 75" version="1.1">
<g id="surface6461">
<rect x="0" y="0" width="205" height="75" style="fill:rgb(100%,100%,100%);fill-opacity:1;stroke:none;"/>
<path style="fill:none;stroke-width:0.05;stroke-linecap:butt;stroke-linejoin:miter;stroke:rgb(0%,0%,0%);stroke-opacity:1;stroke-dasharray:0.1,0.1;stroke-miterlimit:10;" d="M 12.2 3 C 12.2 3.662695 11.662695 4.2 11 4.2 C 10.337305 4.2 9.8 3.662695 9.8 3 C 9.8 2.337305 10.337305 1.8 11 1.8 C 11.662695 1.8 12.2 2.337305 12.2 3 " transform="matrix(20,0,0,20,-182.5,-22.5)"/>
<path style="fill:none;stroke-width:0.05;stroke-linecap:butt;stroke-linejoin:miter;stroke:rgb(0%,0%,0%);stroke-opacity:1;stroke-miterlimit:10;" d="M 11 1.2 L 11 4.8 " transform="matrix(20,0,0,20,-182.5,-22.5)"/>
<path style="fill:none;stroke-width:0.05;stroke-linecap:butt;stroke-linejoin:miter;stroke:rgb(0%,0%,0%);stroke-opacity:1;stroke-dasharray:0.1,0.1;stroke-miterlimit:10;" d="M 9.2 3 L 12.8 3 " transform="matrix(20,0,0,20,-182.5,-22.5)"/>
<path style="fill:none;stroke-width:0.05;stroke-linecap:butt;stroke-linejoin:miter;stroke:rgb(0%,0%,0%);stroke-opacity:1;stroke-dasharray:0.1,0.1;stroke-miterlimit:10;" d="M 9.6 1.6 L 12.4 4.4 " transform="matrix(20,0,0,20,-182.5,-22.5)"/>
<path style="fill:none;stroke-width:0.05;stroke-linecap:butt;stroke-linejoin:miter;stroke:rgb(0%,0%,0%);stroke-opacity:1;stroke-dasharray:0.1,0.1;stroke-miterlimit:10;" d="M 9.6 4.4 L 12.4 1.6 " transform="matrix(20,0,0,20,-182.5,-22.5)"/>
<path style="fill-rule:evenodd;fill:rgb(53.333336%,53.333336%,53.333336%);fill-opacity:1;stroke-width:0.05;stroke-linecap:butt;stroke-linejoin:miter;stroke:rgb(0%,0%,0%);stroke-opacity:1;stroke-miterlimit:10;" d="M 13.1 3 C 13.1 3.133398 12.9 3.133398 12.9 3 C 12.9 2.866602 13.1 2.866602 13.1 3 " transform="matrix(20,0,0,20,-182.5,-22.5)"/>
<path style="fill-rule:evenodd;fill:rgb(53.333336%,53.333336%,53.333336%);fill-opacity:1;stroke-width:0.05;stroke-linecap:butt;stroke-linejoin:miter;stroke:rgb(0%,0%,0%);stroke-opacity:1;stroke-miterlimit:10;" d="M 13.5 3 C 13.5 3.133398 13.3 3.133398 13.3 3 C 13.3 2.866602 13.5 2.866602 13.5 3 " transform="matrix(20,0,0,20,-182.5,-22.5)"/>
<path style="fill-rule:evenodd;fill:rgb(53.333336%,53.333336%,53.333336%);fill-opacity:1;stroke-width:0.05;stroke-linecap:butt;stroke-linejoin:miter;stroke:rgb(0%,0%,0%);stroke-opacity:1;stroke-miterlimit:10;" d="M 13.8 2.4 L 14.3 2.4 L 14.3 1.8 L 14.8 3 L 14.3 4.2 L 14.3 3.6 L 13.8 3.6 Z M 13.8 2.4 " transform="matrix(20,0,0,20,-182.5,-22.5)"/>
<path style="fill:none;stroke-width:0.05;stroke-linecap:butt;stroke-linejoin:miter;stroke:rgb(0%,0%,0%);stroke-opacity:1;stroke-dasharray:0.1,0.1;stroke-miterlimit:10;" d="M 18.4 3 C 18.4 3.662695 17.862695 4.2 17.2 4.2 C 16.537305 4.2 16 3.662695 16 3 C 16 2.337305 16.537305 1.8 17.2 1.8 C 17.862695 1.8 18.4 2.337305 18.4 3 " transform="matrix(20,0,0,20,-182.5,-22.5)"/>
<path style="fill:none;stroke-width:0.05;stroke-linecap:butt;stroke-linejoin:miter;stroke:rgb(0%,0%,0%);stroke-opacity:1;stroke-miterlimit:10;" d="M 17.2 1.2 L 17.2 4.8 " transform="matrix(20,0,0,20,-182.5,-22.5)"/>
<path style="fill:none;stroke-width:0.05;stroke-linecap:butt;stroke-linejoin:miter;stroke:rgb(0%,0%,0%);stroke-opacity:1;stroke-dasharray:0.1,0.1;stroke-miterlimit:10;" d="M 15.4 3 L 19 3 " transform="matrix(20,0,0,20,-182.5,-22.5)"/>
<path style="fill:none;stroke-width:0.05;stroke-linecap:butt;stroke-linejoin:miter;stroke:rgb(0%,0%,0%);stroke-opacity:1;stroke-dasharray:0.1,0.1;stroke-miterlimit:10;" d="M 15.8 1.6 L 18.6 4.4 " transform="matrix(20,0,0,20,-182.5,-22.5)"/>
<path style="fill:none;stroke-width:0.05;stroke-linecap:butt;stroke-linejoin:miter;stroke:rgb(0%,0%,0%);stroke-opacity:1;stroke-dasharray:0.1,0.1;stroke-miterlimit:10;" d="M 15.8 4.4 L 18.6 1.6 " transform="matrix(20,0,0,20,-182.5,-22.5)"/>
<path style="fill-rule:evenodd;fill:rgb(53.333336%,53.333336%,53.333336%);fill-opacity:1;stroke-width:0.05;stroke-linecap:butt;stroke-linejoin:miter;stroke:rgb(0%,0%,0%);stroke-opacity:1;stroke-miterlimit:10;" d="M 19.3 3 C 19.3 3.133398 19.1 3.133398 19.1 3 C 19.1 2.866602 19.3 2.866602 19.3 3 " transform="matrix(20,0,0,20,-182.5,-22.5)"/>
<path style="fill-rule:evenodd;fill:rgb(53.333336%,53.333336%,53.333336%);fill-opacity:1;stroke-width:0.05;stroke-linecap:butt;stroke-linejoin:miter;stroke:rgb(0%,0%,0%);stroke-opacity:1;stroke-miterlimit:10;" d="M 15.2 3 C 15.2 3.133398 15 3.133398 15 3 C 15 2.866602 15.2 2.866602 15.2 3 " transform="matrix(20,0,0,20,-182.5,-22.5)"/>
</g>
</svg>
