<?xml version="1.0" encoding="UTF-8" standalone="no"?>
<!-- Created by diasvg.py -->
<svg width="7.450cm" height="4.254cm" viewBox="11.175 9.873 7.450 4.254"
 xmlns="http://www.w3.org/2000/svg"
 xmlns:xlink="http://www.w3.org/1999/xlink">
<!-- Layer: Background -->
<g id="Background">
<!-- Standard - Line -->
<line x1="13.400" y1="11.000" x2="14.400" y2="11.400" stroke="#000000" stroke-width="0.050" />
<!-- Standard - Line -->
<line x1="13.400" y1="13.000" x2="14.400" y2="12.600" stroke="#000000" stroke-width="0.050" />
<!-- Standard - Line -->
<line x1="16.600" y1="11.000" x2="15.600" y2="11.400" stroke="#000000" stroke-width="0.050" />
<!-- Standard - Line -->
<line x1="15.600" y1="12.600" x2="16.600" y2="13.000" stroke="#000000" stroke-width="0.050" />
<!-- Flowchart - Box -->
<rect x="14.400" y="11.400" width="1.200" height="1.200" fill="#888888" stroke="#000000" stroke-width="0.050"  rx="0.000" />
<text x="15.000" y="12.086"  fill="#000000" text-anchor="middle" font-size="0.35" font-family="sans" font-style="normal" font-weight="400">
P</text>
<!-- Flowchart - Box -->
<rect x="11.400" y="11.000" width="2.000" height="2.000" fill="#888888" stroke="#000000" stroke-width="0.050"  rx="0.000" />
<text x="12.400" y="12.086"  fill="#000000" text-anchor="middle" font-size="0.35" font-family="sans" font-style="normal" font-weight="400">
C1</text>
<!-- Flowchart - Box -->
<rect x="16.600" y="11.000" width="2.000" height="2.000" fill="#888888" stroke="#000000" stroke-width="0.050"  rx="0.000" />
<text x="17.600" y="12.086"  fill="#000000" text-anchor="middle" font-size="0.35" font-family="sans" font-style="normal" font-weight="400">
C2</text>
<!-- Flowchart - Merge -->
<polygon fill="#888888" stroke="#000000" stroke-width="0.050"  points="14.400,12.600 15.600,12.600 15.000,14.000 "/>
<text x="15.000" y="13.038"  fill="#000000" text-anchor="middle" font-size="0.35" font-family="serif" font-style="normal" font-weight="400">
T1</text>
<!-- Flowchart - Extract -->
<polygon fill="#888888" stroke="#000000" stroke-width="0.050"  points="14.400,11.400 15.600,11.400 15.000,10.000 "/>
<text x="15.000" y="11.138"  fill="#000000" text-anchor="middle" font-size="0.35" font-family="serif" font-style="normal" font-weight="400">
T2</text>
<!-- Standard - Line -->
<line x1="13.400" y1="11.000" x2="15.000" y2="10.000" stroke="#000000" stroke-width="0.050" />
<!-- Standard - Line -->
<line x1="15.000" y1="10.000" x2="16.600" y2="11.000" stroke="#000000" stroke-width="0.050" />
<!-- Standard - Line -->
<line x1="15.000" y1="14.000" x2="16.600" y2="13.000" stroke="#000000" stroke-width="0.050" />
<!-- Standard - Line -->
<line x1="13.400" y1="13.000" x2="15.000" y2="14.000" stroke="#000000" stroke-width="0.050" />
<!-- Flowchart - Ellipse -->
<ellipse cx="15.612" cy="11.400" rx="0.212" ry="0.200" fill="none" stroke="#000000"  stroke-width="0.050" />
<!-- Flowchart - Ellipse -->
<ellipse cx="16.600" cy="11.000" rx="0.200" ry="0.200" fill="none" stroke="#000000"  stroke-width="0.050" />
<!-- Flowchart - Ellipse -->
<ellipse cx="11.412" cy="11.000" rx="0.212" ry="0.200" fill="none" stroke="#000000"  stroke-width="0.050" />
</g>
</svg>