<?xml version="1.0" encoding="UTF-8" standalone="no"?>
<!-- Created by diasvg.py -->
<svg width="3.870cm" height="5.901cm" viewBox="11.365 -9.634 3.870 5.901"
 xmlns="http://www.w3.org/2000/svg"
 xmlns:xlink="http://www.w3.org/1999/xlink">
<!-- Layer: Background -->
<g id="Background">
<!-- Standard - PolyLine -->
<polyline fill="none" stroke="#000000" stroke-width="0.050"  points="13.000,-4.000 13.000,-8.000 14.254,-9.254 "/>
<polygon fill="#000000" stroke="#000000" stroke-width="0.050"  points="14.360,-9.360 14.290,-9.148 14.254,-9.254 14.148,-9.290 "/>
<!-- Standard - Line -->
<line x1="13.000" y1="-5.200" x2="15.026" y2="-6.489" stroke="#000000" stroke-width="0.050" />
<polygon fill="#000000" stroke="#000000" stroke-width="0.050"  points="15.153,-6.570 15.038,-6.378 15.026,-6.489 14.930,-6.547 "/>
<!-- Standard - Line -->
<line x1="13.000" y1="-6.800" x2="11.546" y2="-8.254" stroke="#000000" stroke-width="0.050" />
<polygon fill="#000000" stroke="#000000" stroke-width="0.050"  points="11.440,-8.360 11.652,-8.290 11.546,-8.254 11.510,-8.148 "/>
<!-- Standard - Line -->
<line x1="13.400" y1="-8.400" x2="12.892" y2="-9.416" stroke="#000000" stroke-width="0.050" />
<polygon fill="#000000" stroke="#000000" stroke-width="0.050"  points="12.825,-9.550 13.004,-9.416 12.892,-9.416 12.825,-9.326 "/>
<!-- Standard - BezierLine -->
<path stroke="#000000" fill="none" stroke-width="0.050"  d="M 13.600,-4.600 C 13.600,-4.600 13.600,-4.600 13.600,-4.600 "/>
<!-- Standard - Ellipse -->
<ellipse cx="13.000" cy="-4.000" rx="0.800" ry="0.200" fill="none" stroke="#000000"  stroke-width="0.050" stroke-dasharray="0.10,0.10"/>
<!-- Standard - Ellipse -->
<path stroke="#000000" fill="none" stroke-width="0.050" stroke-dasharray="0.10,0.10" d="M 14.098,-6.673 C 14.144,-6.705 14.361,-6.473 14.582,-6.157 C 14.803,-5.842 14.947,-5.558 14.902,-5.527 C 14.856,-5.495 14.639,-5.727 14.418,-6.043 C 14.197,-6.358 14.053,-6.642 14.098,-6.673 z"/>
<!-- Standard - Ellipse -->
<path stroke="#000000" fill="none" stroke-width="0.050" stroke-dasharray="0.10,0.10" d="M 12.350,-8.436 C 12.392,-8.401 12.224,-8.131 11.977,-7.836 C 11.729,-7.541 11.492,-7.328 11.450,-7.364 C 11.408,-7.399 11.576,-7.669 11.823,-7.964 C 12.071,-8.259 12.308,-8.472 12.350,-8.436 z"/>
<!-- Standard - Line -->
<line x1="13.800" y1="-4.000" x2="13.800" y2="-6.800" stroke="#000000" stroke-width="0.050" stroke-dasharray="0.10,0.10"/>
<!-- Standard - Line -->
<line x1="12.200" y1="-4.000" x2="12.200" y2="-6.800" stroke="#000000" stroke-width="0.050" stroke-dasharray="0.10,0.10"/>
<!-- Geometric - Perfect Circle -->
<ellipse cx="12.200" cy="-4.000" rx="0.100" ry="0.100" fill="#888888" stroke="#000000"  stroke-width="0.050" />
<!-- Geometric - Perfect Circle -->
<ellipse cx="13.800" cy="-4.000" rx="0.100" ry="0.100" fill="#888888" stroke="#000000"  stroke-width="0.050" />
<!-- Standard - Ellipse -->
<ellipse cx="13.000" cy="-5.200" rx="0.800" ry="0.200" fill="none" stroke="#000000"  stroke-width="0.050" stroke-dasharray="0.10,0.10"/>
<!-- Standard - Ellipse -->
<ellipse cx="13.000" cy="-6.800" rx="0.800" ry="0.200" fill="none" stroke="#000000"  stroke-width="0.050" stroke-dasharray="0.10,0.10"/>
<!-- Geometric - Perfect Circle -->
<ellipse cx="12.200" cy="-5.200" rx="0.100" ry="0.100" fill="#888888" stroke="#000000"  stroke-width="0.050" />
<!-- Geometric - Perfect Circle -->
<ellipse cx="13.800" cy="-5.200" rx="0.100" ry="0.100" fill="#888888" stroke="#000000"  stroke-width="0.050" />
<!-- Geometric - Perfect Circle -->
<ellipse cx="12.200" cy="-6.800" rx="0.100" ry="0.100" fill="#888888" stroke="#000000"  stroke-width="0.050" />
<!-- Geometric - Perfect Circle -->
<ellipse cx="13.800" cy="-6.800" rx="0.100" ry="0.100" fill="#888888" stroke="#000000"  stroke-width="0.050" />
<!-- Standard - Text -->
<text x="14.200" y="-3.800"  fill="#000000" text-anchor="start" font-size="0.35" font-family="sans" font-style="normal" font-weight="400">
node</text>
<!-- Standard - Text -->
<text x="11.800" y="-8.800"  fill="#000000" text-anchor="start" font-size="0.35" font-family="sans" font-style="normal" font-weight="400">
leaf</text>
</g>
</svg>