<?xml version="1.0" encoding="UTF-8" standalone="no"?>
<!DOCTYPE svg PUBLIC "-//W3C//DTD SVG 1.0//EN" "http://www.w3.org/TR/2001/PR-SVG-20010719/DTD/svg10.dtd">
<svg width="15cm" height="7cm" viewBox="-51 -241 292 136" xmlns="http://www.w3.org/2000/svg" xmlns:xlink="http://www.w3.org/1999/xlink">
  <g id="Background">
    <g>
      <rect style="fill: #ffffff; fill-opacity: 1; stroke-opacity: 1; stroke-width: 1; stroke: #000000" x="60" y="-144" width="80" height="14" rx="0" ry="0"/>
      <text font-size="5.64444" style="fill: #000000; fill-opacity: 1; stroke: none;text-anchor:middle;font-family:sans-serif;font-style:normal;font-weight:normal" x="100" y="-135.289">
        <tspan x="100" y="-135.289">Mesh Generator</tspan>
      </text>
    </g>
    <g>
      <rect style="fill: #ffffff; fill-opacity: 1; stroke-opacity: 1; stroke-width: 1; stroke: #000000" x="60" y="-216" width="80" height="14" rx="0" ry="0"/>
      <text font-size="5.64444" style="fill: #000000; fill-opacity: 1; stroke: none;text-anchor:middle;font-family:sans-serif;font-style:normal;font-weight:normal" x="100" y="-207.289">
        <tspan x="100" y="-207.289">Structure Generator</tspan>
      </text>
    </g>
    <text font-size="6.20889" style="fill: #000000; fill-opacity: 1; stroke: none;text-anchor:start;font-family:sans-serif;font-style:normal;font-weight:normal" x="420" y="120">
      <tspan x="420" y="120"></tspan>
    </text>
    <text font-size="6.20889" style="fill: #000000; fill-opacity: 1; stroke: none;text-anchor:start;font-family:sans-serif;font-style:normal;font-weight:normal" x="480" y="120">
      <tspan x="480" y="120"></tspan>
    </text>
    <g>
      <rect style="fill: #ffffff; fill-opacity: 1; stroke-opacity: 1; stroke-width: 1; stroke: #000000" x="60" y="-168" width="20" height="14" rx="0" ry="0"/>
      <text font-size="5.64444" style="fill: #000000; fill-opacity: 1; stroke: none;text-anchor:middle;font-family:sans-serif;font-style:normal;font-weight:normal" x="70" y="-159.289">
        <tspan x="70" y="-159.289">Plant</tspan>
      </text>
    </g>
    <g>
      <rect style="fill: #ffffff; fill-opacity: 1; stroke-opacity: 1; stroke-width: 1; stroke: #000000" x="90" y="-168" width="20" height="14" rx="0" ry="0"/>
      <text font-size="5.64444" style="fill: #000000; fill-opacity: 1; stroke: none;text-anchor:middle;font-family:sans-serif;font-style:normal;font-weight:normal" x="100" y="-159.289">
        <tspan x="100" y="-159.289">Stem</tspan>
      </text>
    </g>
    <g>
      <rect style="fill: #ffffff; fill-opacity: 1; stroke-opacity: 1; stroke-width: 1; stroke: #000000" x="120" y="-168" width="20" height="14" rx="0" ry="0"/>
      <text font-size="5.64444" style="fill: #000000; fill-opacity: 1; stroke: none;text-anchor:middle;font-family:sans-serif;font-style:normal;font-weight:normal" x="130" y="-159.289">
        <tspan x="130" y="-159.289">Leaf</tspan>
      </text>
    </g>
    <g>
      <line style="fill: none; stroke-opacity: 1; stroke-width: 1; stroke: #000000" x1="80" y1="-202" x2="71.162" y2="-171.951"/>
      <polygon style="fill: #000000; fill-opacity: 1; stroke-opacity: 1; stroke-width: 1; stroke: #000000" fill-rule="evenodd" points="70.3155,-169.073 69.5254,-173.474 71.162,-171.951 73.3629,-172.346 "/>
    </g>
    <g>
      <line style="fill: none; stroke-opacity: 1; stroke-width: 1; stroke: #000000" x1="120" y1="-202" x2="128.838" y2="-171.951"/>
      <polygon style="fill: #000000; fill-opacity: 1; stroke-opacity: 1; stroke-width: 1; stroke: #000000" fill-rule="evenodd" points="129.685,-169.073 126.637,-172.346 128.838,-171.951 130.475,-173.474 "/>
    </g>
    <g>
      <line style="fill: none; stroke-opacity: 1; stroke-width: 1; stroke: #000000" x1="70" y1="-154" x2="77.0881" y2="-146.912"/>
      <polygon style="fill: #000000; fill-opacity: 1; stroke-opacity: 1; stroke-width: 1; stroke: #000000" fill-rule="evenodd" points="79.2094,-144.791 74.9668,-146.205 77.0881,-146.912 77.7952,-149.033 "/>
    </g>
    <g>
      <line style="fill: none; stroke-opacity: 1; stroke-width: 1; stroke: #000000" x1="100" y1="-154" x2="100" y2="-148.118"/>
      <polygon style="fill: #000000; fill-opacity: 1; stroke-opacity: 1; stroke-width: 1; stroke: #000000" fill-rule="evenodd" points="100,-145.118 98,-149.118 100,-148.118 102,-149.118 "/>
    </g>
    <g>
      <line style="fill: none; stroke-opacity: 1; stroke-width: 1; stroke: #000000" x1="130" y1="-154" x2="122.912" y2="-146.912"/>
      <polygon style="fill: #000000; fill-opacity: 1; stroke-opacity: 1; stroke-width: 1; stroke: #000000" fill-rule="evenodd" points="120.791,-144.791 122.205,-149.033 122.912,-146.912 125.033,-146.205 "/>
    </g>
    <g>
      <rect style="fill: #ffffff; fill-opacity: 1; stroke-opacity: 1; stroke-width: 1; stroke: #000000" x="10" y="-192" width="40" height="14" rx="0" ry="0"/>
      <text font-size="5.64444" style="fill: #000000; fill-opacity: 1; stroke: none;text-anchor:middle;font-family:sans-serif;font-style:normal;font-weight:normal" x="30" y="-183.289">
        <tspan x="30" y="-183.289">Material</tspan>
      </text>
    </g>
    <g>
      <rect style="fill: #ffffff; fill-opacity: 1; stroke-opacity: 1; stroke-width: 1; stroke: #000000" x="10" y="-144" width="40" height="14" rx="0" ry="0"/>
      <text font-size="5.64444" style="fill: #000000; fill-opacity: 1; stroke: none;text-anchor:middle;font-family:sans-serif;font-style:normal;font-weight:normal" x="30" y="-135.289">
        <tspan x="30" y="-135.289">Curve</tspan>
      </text>
    </g>
    <g>
      <rect style="fill: #ffffff; fill-opacity: 1; stroke-opacity: 1; stroke-width: 1; stroke: #000000" x="10" y="-168" width="40" height="14" rx="0" ry="0"/>
      <text font-size="5.64444" style="fill: #000000; fill-opacity: 1; stroke: none;text-anchor:middle;font-family:sans-serif;font-style:normal;font-weight:normal" x="30" y="-159.289">
        <tspan x="30" y="-159.289">Mesh</tspan>
      </text>
    </g>
    <g>
      <rect style="fill: #ffffff; fill-opacity: 1; stroke-opacity: 1; stroke-width: 1; stroke: #000000" x="90" y="-192" width="20" height="14" rx="0" ry="0"/>
      <text font-size="5.64444" style="fill: #000000; fill-opacity: 1; stroke: none;text-anchor:middle;font-family:sans-serif;font-style:normal;font-weight:normal" x="100" y="-183.289">
        <tspan x="100" y="-183.289">Path</tspan>
      </text>
    </g>
    <g>
      <line style="fill: none; stroke-opacity: 1; stroke-width: 1; stroke: #000000" x1="100" y1="-201.529" x2="100" y2="-196.118"/>
      <polygon style="fill: #000000; fill-opacity: 1; stroke-opacity: 1; stroke-width: 1; stroke: #000000" fill-rule="evenodd" points="100,-193.118 98,-197.118 100,-196.118 102,-197.118 "/>
    </g>
    <g>
      <line style="fill: none; stroke-opacity: 1; stroke-width: 1; stroke: #000000" x1="100" y1="-172.118" x2="100" y2="-178"/>
      <polygon style="fill: #000000; fill-opacity: 1; stroke-opacity: 1; stroke-width: 1; stroke: #000000" fill-rule="evenodd" points="100,-169.118 98,-173.118 100,-172.118 102,-173.118 "/>
    </g>
    <g>
      <rect style="fill: #888888; fill-opacity: 1; stroke-opacity: 1; stroke-width: 1; stroke: #000000" x="60" y="-240" width="80" height="14" rx="0" ry="0"/>
      <text font-size="5.64444" style="fill: #000000; fill-opacity: 1; stroke: none;text-anchor:middle;font-family:sans-serif;font-style:normal;font-weight:normal" x="100" y="-231.289">
        <tspan x="100" y="-231.289">Command</tspan>
      </text>
    </g>
    <g>
      <line style="fill: none; stroke-opacity: 1; stroke-width: 1; stroke: #000000" x1="100" y1="-226" x2="100" y2="-220.118"/>
      <polygon style="fill: #000000; fill-opacity: 1; stroke-opacity: 1; stroke-width: 1; stroke: #000000" fill-rule="evenodd" points="100,-217.118 98,-221.118 100,-220.118 102,-221.118 "/>
    </g>
    <g>
      <rect style="fill: #888888; fill-opacity: 1; stroke-opacity: 1; stroke-width: 1; stroke: #000000" x="60" y="-120" width="80" height="14" rx="0" ry="0"/>
      <text font-size="5.64444" style="fill: #000000; fill-opacity: 1; stroke: none;text-anchor:middle;font-family:sans-serif;font-style:normal;font-weight:normal" x="100" y="-111.289">
        <tspan x="100" y="-111.289">Viewport</tspan>
      </text>
    </g>
    <g>
      <line style="fill: none; stroke-opacity: 1; stroke-width: 1; stroke: #000000" x1="100" y1="-130" x2="100" y2="-124.118"/>
      <polygon style="fill: #000000; fill-opacity: 1; stroke-opacity: 1; stroke-width: 1; stroke: #000000" fill-rule="evenodd" points="100,-121.118 98,-125.118 100,-124.118 102,-125.118 "/>
    </g>
    <g>
      <rect style="fill: #888888; fill-opacity: 1; stroke-opacity: 1; stroke-width: 1; stroke: #000000" x="10" y="-240" width="40" height="14" rx="0" ry="0"/>
      <text font-size="5.64444" style="fill: #000000; fill-opacity: 1; stroke: none;text-anchor:middle;font-family:sans-serif;font-style:normal;font-weight:normal" x="30" y="-231.289">
        <tspan x="30" y="-231.289">Selection</tspan>
      </text>
    </g>
    <g>
      <line style="fill: none; stroke-opacity: 1; stroke-width: 1; stroke: #000000" x1="50" y1="-233" x2="55.882" y2="-233"/>
      <polygon style="fill: #000000; fill-opacity: 1; stroke-opacity: 1; stroke-width: 1; stroke: #000000" fill-rule="evenodd" points="58.882,-233 54.882,-231 55.882,-233 54.882,-235 "/>
    </g>
    <g>
      <rect style="fill: #888888; fill-opacity: 1; stroke-opacity: 1; stroke-width: 1; stroke: #000000" x="150" y="-240" width="40" height="14" rx="0" ry="0"/>
      <text font-size="5.64444" style="fill: #000000; fill-opacity: 1; stroke: none;text-anchor:middle;font-family:sans-serif;font-style:normal;font-weight:normal" x="170" y="-231.289">
        <tspan x="170" y="-231.289">History</tspan>
      </text>
    </g>
    <g>
      <line style="fill: none; stroke-opacity: 1; stroke-width: 1; stroke: #000000" x1="140" y1="-233" x2="145.882" y2="-233"/>
      <polygon style="fill: #000000; fill-opacity: 1; stroke-opacity: 1; stroke-width: 1; stroke: #000000" fill-rule="evenodd" points="148.882,-233 144.882,-231 145.882,-233 144.882,-235 "/>
    </g>
    <g>
      <rect style="fill: #ffffff; fill-opacity: 1; stroke-opacity: 1; stroke-width: 1; stroke: #000000" x="150" y="-144" width="40" height="14" rx="0" ry="0"/>
      <text font-size="5.64444" style="fill: #000000; fill-opacity: 1; stroke: none;text-anchor:middle;font-family:sans-serif;font-style:normal;font-weight:normal" x="170" y="-135.289">
        <tspan x="170" y="-135.289">File</tspan>
      </text>
    </g>
    <g>
      <line style="fill: none; stroke-opacity: 1; stroke-width: 1; stroke: #000000" x1="140" y1="-137" x2="145.882" y2="-137"/>
      <polygon style="fill: #000000; fill-opacity: 1; stroke-opacity: 1; stroke-width: 1; stroke: #000000" fill-rule="evenodd" points="148.882,-137 144.882,-135 145.882,-137 144.882,-139 "/>
    </g>
    <g>
      <rect style="fill: #888888; fill-opacity: 1; stroke-opacity: 1; stroke-width: 1; stroke: #000000" x="-50" y="-192" width="50" height="14" rx="0" ry="0"/>
      <text font-size="5.64444" style="fill: #000000; fill-opacity: 1; stroke: none;text-anchor:middle;font-family:sans-serif;font-style:normal;font-weight:normal" x="-25" y="-183.289">
        <tspan x="-25" y="-183.289">ShaderParams</tspan>
      </text>
    </g>
    <g>
      <rect style="fill: #888888; fill-opacity: 1; stroke-opacity: 1; stroke-width: 1; stroke: #000000" x="-10" y="-120" width="60" height="14" rx="0" ry="0"/>
      <text font-size="5.64444" style="fill: #000000; fill-opacity: 1; stroke: none;text-anchor:middle;font-family:sans-serif;font-style:normal;font-weight:normal" x="20" y="-111.289">
        <tspan x="20" y="-111.289">Shared Resources</tspan>
      </text>
    </g>
    <g>
      <line style="fill: none; stroke-opacity: 1; stroke-width: 1; stroke: #000000" x1="9.55078" y1="-185" x2="4.11803" y2="-185"/>
      <polygon style="fill: #000000; fill-opacity: 1; stroke-opacity: 1; stroke-width: 1; stroke: #000000" fill-rule="evenodd" points="1.11803,-185 5.11803,-187 4.11803,-185 5.11803,-183 "/>
    </g>
    <g>
      <line style="fill: none; stroke-opacity: 1; stroke-width: 1; stroke: #000000" x1="50" y1="-113" x2="55.882" y2="-113"/>
      <polygon style="fill: #000000; fill-opacity: 1; stroke-opacity: 1; stroke-width: 1; stroke: #000000" fill-rule="evenodd" points="58.882,-113 54.882,-111 55.882,-113 54.882,-115 "/>
    </g>
    <g>
      <polyline style="fill: none; stroke-opacity: 1; stroke-width: 1; stroke: #000000" points="-37.5,-178 -37.5,-113 -14.118,-113 "/>
      <polygon style="fill: #000000; fill-opacity: 1; stroke-opacity: 1; stroke-width: 1; stroke: #000000" fill-rule="evenodd" points="-11.118,-113 -15.118,-111 -14.118,-113 -15.118,-115 "/>
    </g>
    <g>
      <rect style="fill: #ffffff; fill-opacity: 1; stroke-opacity: 1; stroke-width: 1; stroke: #000000" x="168" y="-216" width="54" height="14" rx="0" ry="0"/>
      <text font-size="5.64444" style="fill: #000000; fill-opacity: 1; stroke: none;text-anchor:middle;font-family:sans-serif;font-style:normal;font-weight:normal" x="195" y="-207.289">
        <tspan x="195" y="-207.289">Wind Generator</tspan>
      </text>
    </g>
    <g>
      <rect style="fill: #ffffff; fill-opacity: 1; stroke-opacity: 1; stroke-width: 1; stroke: #000000" x="150" y="-192" width="40" height="14" rx="0" ry="0"/>
      <text font-size="5.64444" style="fill: #000000; fill-opacity: 1; stroke: none;text-anchor:middle;font-family:sans-serif;font-style:normal;font-weight:normal" x="170" y="-183.289">
        <tspan x="170" y="-183.289">Joint</tspan>
      </text>
    </g>
    <g>
      <rect style="fill: #ffffff; fill-opacity: 1; stroke-opacity: 1; stroke-width: 1; stroke: #000000" x="200" y="-192" width="40" height="14" rx="0" ry="0"/>
      <text font-size="5.64444" style="fill: #000000; fill-opacity: 1; stroke: none;text-anchor:middle;font-family:sans-serif;font-style:normal;font-weight:normal" x="220" y="-183.289">
        <tspan x="220" y="-183.289">Animation</tspan>
      </text>
    </g>
    <g>
      <line style="fill: none; stroke-opacity: 1; stroke-width: 1; stroke: #000000" x1="170" y1="-177.494" x2="170" y2="-148.624"/>
      <polygon style="fill: #000000; fill-opacity: 1; stroke-opacity: 1; stroke-width: 1; stroke: #000000" fill-rule="evenodd" points="170,-145.624 168,-149.624 170,-148.624 172,-149.624 "/>
    </g>
    <g>
      <polyline style="fill: none; stroke-opacity: 1; stroke-width: 1; stroke: #000000" points="220,-178 220,-137 194.623,-137 "/>
      <polygon style="fill: #000000; fill-opacity: 1; stroke-opacity: 1; stroke-width: 1; stroke: #000000" fill-rule="evenodd" points="191.623,-137 195.623,-139 194.623,-137 195.623,-135 "/>
    </g>
    <g>
      <polyline style="fill: none; stroke-opacity: 1; stroke-width: 1; stroke: #000000" points="168,-209 160,-209 160,-196.118 "/>
      <polygon style="fill: #000000; fill-opacity: 1; stroke-opacity: 1; stroke-width: 1; stroke: #000000" fill-rule="evenodd" points="160,-193.118 158,-197.118 160,-196.118 162,-197.118 "/>
    </g>
    <g>
      <polyline style="fill: none; stroke-opacity: 1; stroke-width: 1; stroke: #000000" points="222,-209 230,-209 230,-196.118 "/>
      <polygon style="fill: #000000; fill-opacity: 1; stroke-opacity: 1; stroke-width: 1; stroke: #000000" fill-rule="evenodd" points="230,-193.118 228,-197.118 230,-196.118 232,-197.118 "/>
    </g>
    <g>
      <polyline style="fill: none; stroke-opacity: 1; stroke-width: 1; stroke: #000000" points="230,-178 230,-113 144.118,-113 "/>
      <polygon style="fill: #000000; fill-opacity: 1; stroke-opacity: 1; stroke-width: 1; stroke: #000000" fill-rule="evenodd" points="141.118,-113 145.118,-115 144.118,-113 145.118,-111 "/>
    </g>
    <g>
      <line style="fill: none; stroke-opacity: 1; stroke-width: 1; stroke: #000000" x1="50" y1="-178" x2="57.0881" y2="-170.912"/>
      <polygon style="fill: #000000; fill-opacity: 1; stroke-opacity: 1; stroke-width: 1; stroke: #000000" fill-rule="evenodd" points="59.2094,-168.791 54.9668,-170.205 57.0881,-170.912 57.7952,-173.033 "/>
    </g>
    <g>
      <line style="fill: none; stroke-opacity: 1; stroke-width: 1; stroke: #000000" x1="50" y1="-161" x2="55.882" y2="-161"/>
      <polygon style="fill: #000000; fill-opacity: 1; stroke-opacity: 1; stroke-width: 1; stroke: #000000" fill-rule="evenodd" points="58.882,-161 54.882,-159 55.882,-161 54.882,-163 "/>
    </g>
    <g>
      <line style="fill: none; stroke-opacity: 1; stroke-width: 1; stroke: #000000" x1="50" y1="-144" x2="57.0881" y2="-151.088"/>
      <polygon style="fill: #000000; fill-opacity: 1; stroke-opacity: 1; stroke-width: 1; stroke: #000000" fill-rule="evenodd" points="59.2094,-153.209 57.7952,-148.967 57.0881,-151.088 54.9668,-151.795 "/>
    </g>
    <g>
      <line style="fill: none; stroke-opacity: 1; stroke-width: 1; stroke: #000000" x1="90" y1="-161" x2="84.118" y2="-161"/>
      <polygon style="fill: #000000; fill-opacity: 1; stroke-opacity: 1; stroke-width: 1; stroke: #000000" fill-rule="evenodd" points="81.118,-161 85.118,-163 84.118,-161 85.118,-159 "/>
    </g>
    <g>
      <line style="fill: none; stroke-opacity: 1; stroke-width: 1; stroke: #000000" x1="120" y1="-161" x2="114.118" y2="-161"/>
      <polygon style="fill: #000000; fill-opacity: 1; stroke-opacity: 1; stroke-width: 1; stroke: #000000" fill-rule="evenodd" points="111.118,-161 115.118,-163 114.118,-161 115.118,-159 "/>
    </g>
  </g>
</svg>
