<?xml version="1.0" encoding="UTF-8" standalone="no"?>
<!-- Created by diasvg.py -->
<svg width="10.050cm" height="6.750cm" viewBox="0.475 -11.025 10.050 6.750"
 xmlns="http://www.w3.org/2000/svg"
 xmlns:xlink="http://www.w3.org/1999/xlink">
<!-- Layer: Background -->
<g id="Background">
<!-- Flowchart - Box -->
<rect x="3.500" y="-6.200" width="4.000" height="0.700" fill="#FFFFFF" stroke="#000000" stroke-width="0.050"  rx="0.000" />
<text x="5.500" y="-5.764"  fill="#000000" text-anchor="middle" font-size="0.35" font-family="sans" font-style="normal" font-weight="400">
Mesh Generator</text>
<!-- Flowchart - Box -->
<rect x="3.500" y="-9.800" width="4.000" height="0.700" fill="#FFFFFF" stroke="#000000" stroke-width="0.050"  rx="0.000" />
<text x="5.500" y="-9.364"  fill="#000000" text-anchor="middle" font-size="0.35" font-family="sans" font-style="normal" font-weight="400">
Structure Generator</text>
<!-- Standard - Text -->
<!-- Standard - Text -->
<!-- Flowchart - Box -->
<rect x="3.500" y="-7.400" width="1.000" height="0.700" fill="#FFFFFF" stroke="#000000" stroke-width="0.050"  rx="0.000" />
<text x="4.000" y="-6.964"  fill="#000000" text-anchor="middle" font-size="0.35" font-family="sans" font-style="normal" font-weight="400">
Plant</text>
<!-- Flowchart - Box -->
<rect x="5.000" y="-7.400" width="1.000" height="0.700" fill="#FFFFFF" stroke="#000000" stroke-width="0.050"  rx="0.000" />
<text x="5.500" y="-6.964"  fill="#000000" text-anchor="middle" font-size="0.35" font-family="sans" font-style="normal" font-weight="400">
Stem</text>
<!-- Flowchart - Box -->
<rect x="6.500" y="-7.400" width="1.000" height="0.700" fill="#FFFFFF" stroke="#000000" stroke-width="0.050"  rx="0.000" />
<text x="7.000" y="-6.964"  fill="#000000" text-anchor="middle" font-size="0.35" font-family="sans" font-style="normal" font-weight="400">
Leaf</text>
<!-- Standard - Line -->
<line x1="4.500" y1="-7.050" x2="4.794" y2="-7.050" stroke="#000000" stroke-width="0.050" />
<polygon fill="#000000" stroke="#000000" stroke-width="0.050"  points="4.944,-7.050 4.744,-6.950 4.794,-7.050 4.744,-7.150 "/>
<!-- Standard - Line -->
<line x1="6.000" y1="-7.050" x2="6.294" y2="-7.050" stroke="#000000" stroke-width="0.050" />
<polygon fill="#000000" stroke="#000000" stroke-width="0.050"  points="6.444,-7.050 6.244,-6.950 6.294,-7.050 6.244,-7.150 "/>
<!-- Standard - Line -->
<line x1="4.500" y1="-9.100" x2="4.058" y2="-7.598" stroke="#000000" stroke-width="0.050" />
<polygon fill="#000000" stroke="#000000" stroke-width="0.050"  points="4.016,-7.454 3.976,-7.674 4.058,-7.598 4.168,-7.617 "/>
<!-- Standard - Line -->
<line x1="6.500" y1="-9.100" x2="6.942" y2="-7.598" stroke="#000000" stroke-width="0.050" />
<polygon fill="#000000" stroke="#000000" stroke-width="0.050"  points="6.984,-7.454 6.832,-7.617 6.942,-7.598 7.024,-7.674 "/>
<!-- Standard - Line -->
<line x1="4.000" y1="-6.700" x2="4.354" y2="-6.346" stroke="#000000" stroke-width="0.050" />
<polygon fill="#000000" stroke="#000000" stroke-width="0.050"  points="4.460,-6.240 4.248,-6.310 4.354,-6.346 4.390,-6.452 "/>
<!-- Standard - Line -->
<line x1="5.500" y1="-6.700" x2="5.500" y2="-6.406" stroke="#000000" stroke-width="0.050" />
<polygon fill="#000000" stroke="#000000" stroke-width="0.050"  points="5.500,-6.256 5.400,-6.456 5.500,-6.406 5.600,-6.456 "/>
<!-- Standard - Line -->
<line x1="7.000" y1="-6.700" x2="6.646" y2="-6.346" stroke="#000000" stroke-width="0.050" />
<polygon fill="#000000" stroke="#000000" stroke-width="0.050"  points="6.540,-6.240 6.610,-6.452 6.646,-6.346 6.752,-6.310 "/>
<!-- Flowchart - Box -->
<rect x="0.500" y="-8.600" width="2.000" height="0.700" fill="#FFFFFF" stroke="#000000" stroke-width="0.050"  rx="0.000" />
<text x="1.500" y="-8.164"  fill="#000000" text-anchor="middle" font-size="0.35" font-family="sans" font-style="normal" font-weight="400">
Material</text>
<!-- Flowchart - Box -->
<rect x="0.500" y="-6.200" width="2.000" height="0.700" fill="#FFFFFF" stroke="#000000" stroke-width="0.050"  rx="0.000" />
<text x="1.500" y="-5.764"  fill="#000000" text-anchor="middle" font-size="0.35" font-family="sans" font-style="normal" font-weight="400">
Curve</text>
<!-- Standard - Line -->
<line x1="3.500" y1="-7.225" x2="2.644" y2="-8.103" stroke="#000000" stroke-width="0.050" />
<polygon fill="#000000" stroke="#000000" stroke-width="0.050"  points="2.539,-8.210 2.750,-8.137 2.644,-8.103 2.607,-7.997 "/>
<!-- Standard - Line -->
<line x1="3.500" y1="-6.875" x2="2.644" y2="-5.997" stroke="#000000" stroke-width="0.050" />
<polygon fill="#000000" stroke="#000000" stroke-width="0.050"  points="2.539,-5.890 2.607,-6.103 2.644,-5.997 2.750,-5.963 "/>
<!-- Flowchart - Box -->
<rect x="0.500" y="-7.400" width="2.000" height="0.700" fill="#FFFFFF" stroke="#000000" stroke-width="0.050"  rx="0.000" />
<text x="1.500" y="-6.964"  fill="#000000" text-anchor="middle" font-size="0.35" font-family="sans" font-style="normal" font-weight="400">
Mesh</text>
<!-- Standard - Line -->
<line x1="3.500" y1="-7.050" x2="2.706" y2="-7.050" stroke="#000000" stroke-width="0.050" />
<polygon fill="#000000" stroke="#000000" stroke-width="0.050"  points="2.556,-7.050 2.756,-7.150 2.706,-7.050 2.756,-6.950 "/>
<!-- Flowchart - Box -->
<rect x="5.000" y="-8.600" width="1.000" height="0.700" fill="#FFFFFF" stroke="#000000" stroke-width="0.050"  rx="0.000" />
<text x="5.500" y="-8.164"  fill="#000000" text-anchor="middle" font-size="0.35" font-family="sans" font-style="normal" font-weight="400">
Path</text>
<!-- Standard - Line -->
<line x1="5.500" y1="-9.076" x2="5.500" y2="-8.806" stroke="#000000" stroke-width="0.050" />
<polygon fill="#000000" stroke="#000000" stroke-width="0.050"  points="5.500,-8.656 5.400,-8.856 5.500,-8.806 5.600,-8.856 "/>
<!-- Standard - Line -->
<line x1="5.500" y1="-7.606" x2="5.500" y2="-7.900" stroke="#000000" stroke-width="0.050" />
<polygon fill="#000000" stroke="#000000" stroke-width="0.050"  points="5.500,-7.456 5.400,-7.656 5.500,-7.606 5.600,-7.656 "/>
<!-- Flowchart - Box -->
<rect x="3.500" y="-11.000" width="4.000" height="0.700" fill="#888888" stroke="#000000" stroke-width="0.050"  rx="0.000" />
<text x="5.500" y="-10.564"  fill="#000000" text-anchor="middle" font-size="0.35" font-family="sans" font-style="normal" font-weight="400">
Command</text>
<!-- Standard - Line -->
<line x1="5.500" y1="-10.300" x2="5.500" y2="-10.006" stroke="#000000" stroke-width="0.050" />
<polygon fill="#000000" stroke="#000000" stroke-width="0.050"  points="5.500,-9.856 5.400,-10.056 5.500,-10.006 5.600,-10.056 "/>
<!-- Flowchart - Box -->
<rect x="3.500" y="-5.000" width="4.000" height="0.700" fill="#888888" stroke="#000000" stroke-width="0.050"  rx="0.000" />
<text x="5.500" y="-4.564"  fill="#000000" text-anchor="middle" font-size="0.35" font-family="sans" font-style="normal" font-weight="400">
Viewport</text>
<!-- Standard - Line -->
<line x1="5.500" y1="-5.500" x2="5.500" y2="-5.206" stroke="#000000" stroke-width="0.050" />
<polygon fill="#000000" stroke="#000000" stroke-width="0.050"  points="5.500,-5.056 5.400,-5.256 5.500,-5.206 5.600,-5.256 "/>
<!-- Flowchart - Box -->
<rect x="0.500" y="-11.000" width="2.000" height="0.700" fill="#888888" stroke="#000000" stroke-width="0.050"  rx="0.000" />
<text x="1.500" y="-10.564"  fill="#000000" text-anchor="middle" font-size="0.35" font-family="sans" font-style="normal" font-weight="400">
Selection</text>
<!-- Standard - Line -->
<line x1="3.500" y1="-10.650" x2="2.706" y2="-10.650" stroke="#000000" stroke-width="0.050" />
<polygon fill="#000000" stroke="#000000" stroke-width="0.050"  points="2.556,-10.650 2.756,-10.750 2.706,-10.650 2.756,-10.550 "/>
<!-- Flowchart - Box -->
<rect x="8.500" y="-11.000" width="2.000" height="0.700" fill="#888888" stroke="#000000" stroke-width="0.050"  rx="0.000" />
<text x="9.500" y="-10.564"  fill="#000000" text-anchor="middle" font-size="0.35" font-family="sans" font-style="normal" font-weight="400">
History</text>
<!-- Standard - Line -->
<line x1="7.500" y1="-10.650" x2="8.294" y2="-10.650" stroke="#000000" stroke-width="0.050" />
<polygon fill="#000000" stroke="#000000" stroke-width="0.050"  points="8.444,-10.650 8.244,-10.550 8.294,-10.650 8.244,-10.750 "/>
<!-- Flowchart - Box -->
<rect x="8.500" y="-6.200" width="2.000" height="0.700" fill="#FFFFFF" stroke="#000000" stroke-width="0.050"  rx="0.000" />
<text x="9.500" y="-5.764"  fill="#000000" text-anchor="middle" font-size="0.35" font-family="sans" font-style="normal" font-weight="400">
File</text>
<!-- Standard - Line -->
<line x1="7.500" y1="-5.850" x2="8.294" y2="-5.850" stroke="#000000" stroke-width="0.050" />
<polygon fill="#000000" stroke="#000000" stroke-width="0.050"  points="8.444,-5.850 8.244,-5.750 8.294,-5.850 8.244,-5.950 "/>
</g>
</svg>